<svg width="31" height="19" viewBox="0 0 31 19" fill="none" xmlns="http://www.w3.org/2000/svg">
<path d="M26.1658 0H4.75552C2.22151 0 0.166748 1.57432 0.166748 3.51582V15.2337C0.166748 17.1752 2.22151 18.7495 4.75552 18.7495H26.1658C28.6998 18.7495 30.7546 17.1752 30.7546 15.2337V3.51123C30.7546 1.56973 28.6998 0 26.1658 0ZM25.5428 2.34082L16.545 9.23018C15.9519 9.68916 14.9814 9.69375 14.3824 9.23477L14.3764 9.23018L5.37854 2.34082H25.5428ZM27.6994 15.2337C27.6994 15.8809 27.0165 16.4041 26.1718 16.4041H4.75552C3.91085 16.4041 3.22793 15.8809 3.22793 15.2337V3.99316L12.2198 10.8825C14.011 12.2549 16.9104 12.2549 18.7076 10.8825L27.6994 3.99316V15.2337Z" fill="white"/>
</svg>
