<svg width="32" height="20" viewBox="0 0 32 20" fill="none" xmlns="http://www.w3.org/2000/svg">
<path d="M31.233 2.28472C30.1067 2.66567 28.9026 2.9227 27.6326 3.04204C28.9266 2.44536 29.921 1.50444 30.3883 0.384521C29.1782 0.926123 27.8303 1.32085 26.4046 1.54116C25.2604 0.604835 23.6369 0.017334 21.8278 0.017334C18.3652 0.017334 15.5556 2.16997 15.5556 4.81831C15.5556 5.19927 15.6155 5.56645 15.7174 5.91528C10.5056 5.7271 5.88087 3.80854 2.78974 0.907763C2.24459 1.6146 1.93907 2.43159 1.93907 3.32661C1.93907 4.99731 3.04733 6.46606 4.73068 7.32896C3.7003 7.30142 2.73582 7.08569 1.89115 6.72769V6.78735C1.89115 9.11899 4.04776 11.0605 6.92323 11.5011C6.39606 11.6113 5.83893 11.6664 5.26983 11.6664C4.86846 11.6664 4.48507 11.6388 4.10167 11.5837C4.90441 13.4931 7.21677 14.8838 9.97243 14.9206C7.83379 16.2103 5.11407 16.9768 2.19667 16.9768C1.69945 16.9768 1.20223 16.9539 0.705017 16.9125C3.49662 18.2757 6.78544 19.0698 10.3379 19.0698C21.8697 19.0698 28.1778 11.749 28.1778 5.4104C28.1778 5.20845 28.1778 5.0019 28.1598 4.79536C29.3819 4.12065 30.4542 3.27153 31.2929 2.30767L31.233 2.28472Z" fill="white"/>
</svg>
