<svg width="32" height="23" viewBox="0 0 32 23" fill="none" xmlns="http://www.w3.org/2000/svg">
<path d="M16.1929 0.034668C7.7162 0.034668 0.851013 5.29922 0.851013 11.7893C0.851013 16.985 5.24809 21.3912 11.3405 22.9426C12.1073 23.0527 12.3888 22.6901 12.3888 22.378C12.3888 22.098 12.3769 21.3591 12.3709 20.3814C8.10559 21.0929 7.20101 18.8025 7.20101 18.8025C6.50012 17.4439 5.4937 17.0813 5.4937 17.0813C4.10389 16.3516 5.60153 16.3653 5.60153 16.3653C7.14111 16.4479 7.94984 17.5771 7.94984 17.5771C9.31569 19.3763 11.5442 18.8576 12.4188 18.5547C12.5566 17.7928 12.952 17.2741 13.3893 16.9804C9.98064 16.6866 6.39828 15.6769 6.39828 11.1696C6.39828 9.88447 6.99135 8.83799 7.97979 8.01641C7.80606 7.71807 7.29087 6.52471 8.11158 4.90449C8.11158 4.90449 9.39955 4.58779 12.3289 6.11162C13.557 5.85 14.863 5.72148 16.1629 5.71689C17.4688 5.72148 18.7688 5.85 19.9969 6.11162C22.9143 4.59238 24.1963 4.90449 24.1963 4.90449C25.023 6.52471 24.5018 7.71807 24.352 8.01641C25.3285 8.83799 25.9275 9.88906 25.9275 11.1696C25.9275 15.686 22.3392 16.682 18.9246 16.9712C19.4637 17.3246 19.9609 18.0452 19.9609 19.1468C19.9609 20.7211 19.943 21.9833 19.943 22.3643C19.943 22.6718 20.2125 23.039 20.9973 22.9242C27.1436 21.3866 31.5347 16.9804 31.5347 11.7893C31.5347 5.29922 24.6635 0.034668 16.1929 0.034668Z" fill="white"/>
</svg>
