<svg width="20" height="34" viewBox="0 0 20 34" fill="none" xmlns="http://www.w3.org/2000/svg">
<path d="M5.00051 16.1104C6.52741 15.1034 8.3565 14.5172 10.3223 14.5172C15.6671 14.5172 20 18.8501 20 24.1949C20 29.5398 15.6671 33.8726 10.3223 33.8726C5.41327 33.8726 1.35806 30.2176 0.729254 25.4805C-0.153111 21.1438 -0.49788 15.9301 1.2308 11.211C3.08263 6.15517 7.19179 2.00536 14.5483 0.0794991C15.8411 -0.258979 17.1633 0.514754 17.5017 1.80721C17.8401 3.09991 17.0665 4.42213 15.7739 4.76061C9.82364 6.31848 7.03743 9.42696 5.77425 12.8754C5.39778 13.9036 5.14689 14.9897 5.00051 16.1104Z" fill="#832727"/>
</svg>
