<svg width="20" height="34" viewBox="0 0 20 34" fill="none" xmlns="http://www.w3.org/2000/svg">
<path d="M14.9995 17.7622C13.4726 18.7692 11.6435 19.3554 9.67771 19.3554C4.33286 19.3554 0 15.0225 0 9.67771C0 4.33286 4.33286 0 9.67771 0C14.5867 0 18.6419 3.65498 19.2707 8.39208C20.1531 12.7289 20.4979 17.9425 18.7692 22.6616C16.9174 27.7175 12.8082 31.8673 5.4517 33.7931C4.15895 34.1316 2.83671 33.3579 2.4983 32.0654C2.1599 30.7727 2.93346 29.4505 4.22611 29.112C10.1764 27.5541 12.9626 24.4457 14.2258 20.9973C14.6022 19.969 14.8531 18.8829 14.9995 17.7622Z" fill="#832727"/>
</svg>
